<?xml version="1.0" standalone="no"?>
<!DOCTYPE svg PUBLIC "-//W3C//DTD SVG 20010904//EN"
 "http://www.w3.org/TR/2001/REC-SVG-20010904/DTD/svg10.dtd">
<svg version="1.0" xmlns="http://www.w3.org/2000/svg"
 width="501.000000pt" height="453.000000pt" viewBox="0 0 501.000000 453.000000"
 preserveAspectRatio="xMidYMid meet">

<g transform="translate(0.000000,453.000000) scale(0.100000,-0.100000)"
fill="#000000" stroke="none">
<path d="M133 4453 c-10 -4 -13 -156 -13 -714 l0 -709 380 0 380 0 2 28 c1 15
2 212 2 437 l1 410 240 -1 c198 0 251 -3 305 -18 297 -81 438 -330 368 -651
-19 -86 -65 -165 -144 -242 -77 -77 -146 -118 -274 -163 l-75 -26 -3 -253 c-2
-179 1 -258 9 -267 7 -9 32 -14 63 -14 81 0 234 -29 314 -60 188 -72 329 -195
406 -351 52 -107 66 -174 66 -325 0 -130 -12 -192 -55 -283 -48 -100 -108
-182 -196 -267 -207 -198 -422 -295 -754 -339 -66 -9 -154 -15 -195 -13 l-75
3 0 900 c0 495 -2 910 -3 923 l-2 22 -367 0 c-203 0 -374 -4 -381 -8 -10 -7
-12 -251 -10 -1188 l3 -1179 275 -3 c345 -4 824 13 954 33 488 76 862 307
1168 725 192 261 278 509 278 800 0 197 -50 377 -145 521 -78 119 -267 299
-422 404 -73 49 -133 91 -133 95 0 3 41 46 90 95 l90 90 0 -62 c0 -34 3 -64 8
-66 4 -3 112 -8 239 -12 l233 -6 9 23 c5 13 28 75 51 138 64 172 130 316 183
398 115 175 285 356 416 440 77 49 184 97 277 124 103 30 329 32 442 5 151
-36 270 -93 357 -169 l48 -42 19 25 c11 13 38 60 60 104 23 44 62 118 88 165
62 111 85 177 70 205 -14 26 -167 134 -245 172 -171 85 -330 122 -560 130
-263 9 -447 -30 -690 -146 -270 -129 -495 -317 -729 -608 -32 -40 -60 -73 -61
-73 -2 0 -18 37 -35 83 -75 193 -164 311 -360 468 -118 96 -347 210 -490 244
-211 51 -285 55 -898 54 -312 0 -573 -3 -579 -6z"/>
<path d="M3705 2480 l-60 -5 0 -275 0 -275 322 0 323 0 2 -475 2 -475 -31 -67
c-61 -131 -159 -203 -318 -234 -210 -40 -480 49 -714 237 -41 32 -80 59 -87
59 -8 0 -20 -10 -27 -22 -36 -58 -233 -369 -264 -415 -24 -35 -32 -56 -27 -66
19 -32 205 -159 324 -221 214 -110 428 -166 635 -166 248 0 487 73 662 203 82
61 200 180 256 258 61 86 132 231 157 320 19 71 20 101 20 842 0 605 -3 769
-12 772 -19 6 -1092 11 -1163 5z"/>
</g>
</svg>
